HIERARCHY
ROOT Hips
{
  OFFSET 5.72205e-005 65.662 3.42586
  CHANNELS 6 Xposition Yposition Zposition Zrotation Xrotation Yrotation
  JOINT Chest
  {
    OFFSET 0 8.7983 -4.7612
    CHANNELS 3 Zrotation Xrotation Yrotation
    JOINT Chest2
    {
      OFFSET 0 8.0291 0.4195
      CHANNELS 3 Zrotation Xrotation Yrotation
      JOINT Chest3
      {
        OFFSET 0 9.9351 -2.2114
        CHANNELS 3 Zrotation Xrotation Yrotation
        JOINT Neck
        {
          OFFSET 0 22.3885 -0.4656
          CHANNELS 3 Zrotation Xrotation Yrotation
          JOINT Head
          {
            OFFSET -0.0001 12.643 3.4389
            CHANNELS 3 Zrotation Xrotation Yrotation
            End Site
            {
              OFFSET 0.0001 17.6655 0.5274
            }
          }
        }
        JOINT LeftCollar
        {
          OFFSET 2.2603 21.606 7.4023
          CHANNELS 3 Zrotation Xrotation Yrotation
          JOINT LeftShoulder
          {
            OFFSET 13.5163 -1.1332 -5.0146
            CHANNELS 3 Zrotation Xrotation Yrotation
            JOINT LeftElbow
            {
              OFFSET -0.0995 -28.05 -0.2431
              CHANNELS 3 Zrotation Xrotation Yrotation
              JOINT LeftWrist
              {
                OFFSET 0.0679 -23.3996 -0.1402
                CHANNELS 3 Zrotation Xrotation Yrotation
                JOINT LeftFinger1
                {
                  OFFSET 0.7932 -9.069 2.5189
                  CHANNELS 3 Zrotation Xrotation Yrotation
                  JOINT LeftFinger11
                  {
                    OFFSET -0.8272 -3.3923 0.5977
                    CHANNELS 3 Zrotation Xrotation Yrotation
                    JOINT LeftFinger12
                    {
                      OFFSET -0.5649 -2.3158 0.4082
                      CHANNELS 3 Zrotation Xrotation Yrotation
                      End Site
                      {
                        OFFSET -0.4919 -1.6479 0.2673
                      }
                    }
                  }
                }
                JOINT LeftFinger2
                {
                  OFFSET 0.9159 -9.2044 0.2193
                  CHANNELS 3 Zrotation Xrotation Yrotation
                  JOINT LeftFinger21
                  {
                    OFFSET 0.0117 -4.1944 -0.0248
                    CHANNELS 3 Zrotation Xrotation Yrotation
                    JOINT LeftFinger22
                    {
                      OFFSET 0.0071 -2.3249 -0.0142
                      CHANNELS 3 Zrotation Xrotation Yrotation
                      End Site
                      {
                        OFFSET -0.1475 -2.0882 0.0028
                      }
                    }
                  }
                }
                JOINT LeftFinger3
                {
                  OFFSET 0.6113 -8.7231 -2.0637
                  CHANNELS 3 Zrotation Xrotation Yrotation
                  JOINT LeftFinger31
                  {
                    OFFSET -0.1927 -3.8059 -0.2383
                    CHANNELS 3 Zrotation Xrotation Yrotation
                    JOINT LeftFinger32
                    {
                      OFFSET -0.1091 -2.1688 -0.1362
                      CHANNELS 3 Zrotation Xrotation Yrotation
                      End Site
                      {
                        OFFSET -0.2358 -1.9176 -0.0906
                      }
                    }
                  }
                }
                JOINT LeftFinger4
                {
                  OFFSET -0.6151 -8.0947 -3.5641
                  CHANNELS 3 Zrotation Xrotation Yrotation
                  JOINT LeftFinger41
                  {
                    OFFSET -0.4882 -2.341 -0.6462
                    CHANNELS 3 Zrotation Xrotation Yrotation
                    JOINT LeftFinger42
                    {
                      OFFSET -0.3575 -1.7167 -0.4742
                      CHANNELS 3 Zrotation Xrotation Yrotation
                      End Site
                      {
                        OFFSET -0.4187 -1.5237 -0.3496
                      }
                    }
                  }
                }
                JOINT LeftFinger0
                {
                  OFFSET -1.42 -1.8761 1.4223
                  CHANNELS 3 Zrotation Xrotation Yrotation
                  JOINT LeftFinger01
                  {
                    OFFSET -1.1471 -3.4929 2.6334
                    CHANNELS 3 Zrotation Xrotation Yrotation
                    JOINT LeftFinger02
                    {
                      OFFSET -0.823 -2.3 1.6571
                      CHANNELS 3 Zrotation Xrotation Yrotation
                      End Site
                      {
                        OFFSET -0.5822 -1.6914 1.1582
                      }
                    }
                  }
                }
              }
            }
          }
        }
        JOINT RightCollar
        {
          OFFSET -2.2603 21.606 7.4023
          CHANNELS 3 Zrotation Xrotation Yrotation
          JOINT RightShoulder
          {
            OFFSET -13.5187 -1.1334 -5.0155
            CHANNELS 3 Zrotation Xrotation Yrotation
            JOINT RightElbow
            {
              OFFSET 0.0994 -28.0499 -0.2431
              CHANNELS 3 Zrotation Xrotation Yrotation
              JOINT RightWrist
              {
                OFFSET -0.0679 -23.3996 -0.1402
                CHANNELS 3 Zrotation Xrotation Yrotation
                JOINT RightFinger1
                {
                  OFFSET -0.7932 -9.0691 2.5189
                  CHANNELS 3 Zrotation Xrotation Yrotation
                  JOINT RightFinger11
                  {
                    OFFSET 0.8272 -3.3923 0.5977
                    CHANNELS 3 Zrotation Xrotation Yrotation
                    JOINT RightFinger12
                    {
                      OFFSET 0.565 -2.3158 0.4082
                      CHANNELS 3 Zrotation Xrotation Yrotation
                      End Site
                      {
                        OFFSET 0.4919 -1.6479 0.2673
                      }
                    }
                  }
                }
                JOINT RightFinger2
                {
                  OFFSET -0.916 -9.2044 0.2193
                  CHANNELS 3 Zrotation Xrotation Yrotation
                  JOINT RightFinger21
                  {
                    OFFSET -0.0117 -4.1944 -0.0248
                    CHANNELS 3 Zrotation Xrotation Yrotation
                    JOINT RightFinger22
                    {
                      OFFSET -0.0071 -2.3249 -0.0142
                      CHANNELS 3 Zrotation Xrotation Yrotation
                      End Site
                      {
                        OFFSET 0.1475 -2.0882 0.0028
                      }
                    }
                  }
                }
                JOINT RightFinger3
                {
                  OFFSET -0.6113 -8.7231 -2.0637
                  CHANNELS 3 Zrotation Xrotation Yrotation
                  JOINT RightFinger31
                  {
                    OFFSET 0.1927 -3.8059 -0.2383
                    CHANNELS 3 Zrotation Xrotation Yrotation
                    JOINT RightFinger32
                    {
                      OFFSET 0.1091 -2.1688 -0.1362
                      CHANNELS 3 Zrotation Xrotation Yrotation
                      End Site
                      {
                        OFFSET 0.2358 -1.9176 -0.0906
                      }
                    }
                  }
                }
                JOINT RightFinger4
                {
                  OFFSET 0.6151 -8.0947 -3.564
                  CHANNELS 3 Zrotation Xrotation Yrotation
                  JOINT RightFinger41
                  {
                    OFFSET 0.4882 -2.341 -0.6462
                    CHANNELS 3 Zrotation Xrotation Yrotation
                    JOINT RightFinger42
                    {
                      OFFSET 0.3574 -1.7166 -0.4742
                      CHANNELS 3 Zrotation Xrotation Yrotation
                      End Site
                      {
                        OFFSET 0.4187 -1.5237 -0.3496
                      }
                    }
                  }
                }
                JOINT RightFinger0
                {
                  OFFSET 1.4199 -1.8761 1.4221
                  CHANNELS 3 Zrotation Xrotation Yrotation
                  JOINT RightFinger01
                  {
                    OFFSET 1.1472 -3.4929 2.6336
                    CHANNELS 3 Zrotation Xrotation Yrotation
                    JOINT RightFinger02
                    {
                      OFFSET 0.8229 -2.3 1.6571
                      CHANNELS 3 Zrotation Xrotation Yrotation
                      End Site
                      {
                        OFFSET 0.5822 -1.6914 1.1582
                      }
                    }
                  }
                }
              }
            }
          }
        }
      }
    }
  }
  JOINT RightHip
  {
    OFFSET -9.412 3.9771 -0.7758
    CHANNELS 3 Zrotation Xrotation Yrotation
    JOINT RightKnee
    {
      OFFSET -0.7531 -40.938 0
      CHANNELS 3 Zrotation Xrotation Yrotation
      JOINT RightAnkle
      {
        OFFSET 0 -40.1986 0
        CHANNELS 3 Zrotation Xrotation Yrotation
        JOINT RightToe
        {
          OFFSET 0 -4.4182 9.239
          CHANNELS 3 Zrotation Xrotation Yrotation
          End Site
          {
            OFFSET 0 0 6.1981
          }
        }
      }
    }
  }
  JOINT LeftHip
  {
    OFFSET 9.4119 3.9773 -0.7758
    CHANNELS 3 Zrotation Xrotation Yrotation
    JOINT LeftKnee
    {
      OFFSET 0.7532 -40.9383 0
      CHANNELS 3 Zrotation Xrotation Yrotation
      JOINT LeftAnkle
      {
        OFFSET 0 -40.1986 0
        CHANNELS 3 Zrotation Xrotation Yrotation
        JOINT LeftToe
        {
          OFFSET 0 -4.4182 9.239
          CHANNELS 3 Zrotation Xrotation Yrotation
          End Site
          {
            OFFSET 0 0 6.1981
          }
        }
      }
    }
  }
}
MOTION
Frames:	4
Frame Time:	0.0333333
5.72205e-005 65.662 3.42586 0 0 -0 0 0 -0 0 0 -0 0 0 -0 0 0 -0 0 0 -0 0 0 -12.5014 88.1196 14.2451 10.6914 -0.00160068 -0.00239207 0.000740045 -8.4365e-005 7.00714e-005 -9.52055e-007 9.93923e-017 -1.98785e-016 -1.59028e-015 9.93923e-017 -5.96354e-016 -1.59028e-015 -9.93923e-017 -5.96354e-016 -1.59028e-015 9.93923e-017 -1.98785e-016 -1.59028e-015 -0.0128176 0.00232552 8.52707e-005 9.93923e-017 5.96354e-016 -0 9.93923e-017 -1.98785e-016 -1.59028e-015 -0.0160551 0.00299681 0.000857156 -2.48481e-016 0 3.18055e-015 9.93923e-017 -1.98785e-016 -1.59028e-015 -0.0125865 0.0031206 0.00282719 0 1.98785e-016 -0 9.93923e-017 -1.98785e-016 -1.59028e-015 9.93923e-017 -5.96354e-016 -1.59028e-015 -9.93923e-017 -5.96354e-016 -1.59028e-015 -0.865644 0.16582 7.03859 -88.0329 10.2057 -10.5567 0.0015593 -0.00248883 -0.000788628 7.87605e-005 4.10553e-005 1.24965e-005 -3.97569e-016 -7.95139e-016 3.18055e-015 -1.98785e-016 -3.97569e-016 3.18055e-015 -1.98785e-016 0 3.18055e-015 -3.97569e-016 -7.95139e-016 3.18055e-015 0.0129473 0.00231697 -8.70038e-005 9.93923e-017 -7.95139e-016 1.59028e-015 -3.97569e-016 -7.95139e-016 3.18055e-015 0.0163314 0.00303369 -0.000872333 3.97569e-016 7.95139e-016 -3.18055e-015 -3.97569e-016 -7.95139e-016 3.18055e-015 0.0145763 0.00367772 -0.00326275 9.93923e-017 -3.97569e-016 -0 -3.97569e-016 -7.95139e-016 3.18055e-015 -1.98785e-016 -3.97569e-016 3.18055e-015 -1.98785e-016 0 3.18055e-015 3.42482 1.32465 -0.0626183 0.000117508 0.717283 0.000978199 -3.4257 -2.04197 -0.0604716 6.47761e-025 0 -0 -3.42483 1.34017 0.0627307 -0.000193936 0.682302 -0.0013703 3.42574 -2.02253 0.0595886 -8.45714e-024 0 -7.40531e-025 
0.108843 22.9956 9.79004 5.1955 -79.2501 3.95427 -0.511622 5.14739 -0.691622 -0.966424 10.3005 -1.34506 -0.966424 10.3005 -1.34506 0.903969 4.69234 -0.220996 -0.464542 -4.02069 -1.65842 19.2091 2.77076 -28.3291 37.359 -7.83394 -33.3022 54.0831 -17.0899 55.5483 -13.9595 -25.4864 46.6504 -2.15657e-006 -7.27401e-006 -4.12415e-006 -7.95139e-016 9.54166e-015 1.98785e-015 3.37934e-015 1.59028e-014 4.17448e-015 -2.15657e-006 -7.27401e-006 -4.12415e-006 -0.0128115 0.00232583 8.69736e-005 -1.98785e-016 -3.18055e-015 -5.96354e-016 -2.15657e-006 -7.27401e-006 -4.12415e-006 -0.0159892 0.00297789 0.000856787 4.27387e-015 0 6.36111e-015 -2.15657e-006 -7.27401e-006 -4.12415e-006 -0.0127033 0.00315664 0.00285899 1.2921e-015 6.36111e-015 7.95139e-016 -2.15657e-006 -7.27401e-006 -4.12415e-006 -7.95139e-016 9.54166e-015 1.98785e-015 3.37934e-015 1.59028e-014 4.17448e-015 -20.1173 2.70728 22.8746 -37.4458 -10.9421 37.4027 -52.9551 -16.1773 -56.4471 15.3481 -25.1217 -46.2091 -7.95139e-016 3.18055e-015 2.38542e-015 1.59028e-015 6.36111e-015 2.38542e-015 -7.95139e-016 0 3.18055e-015 -7.95139e-016 3.18055e-015 2.38542e-015 0.0129507 0.00231922 -8.69573e-005 1.59028e-015 0 3.18055e-015 -7.95139e-016 3.18055e-015 2.38542e-015 0.0164088 0.00305554 -0.000885507 -4.73823e-006 3.15023e-006 -3.12862e-006 -7.95139e-016 3.18055e-015 2.38542e-015 0.0146233 0.00368853 -0.00327627 2.38542e-015 -6.36111e-015 7.95139e-015 -7.95139e-016 3.18055e-015 2.38542e-015 1.59028e-015 6.36111e-015 2.38542e-015 -7.95139e-016 0 3.18055e-015 3.2183 -8.9757 5.17092 2.21008 72.0708 -3.50392 -0.443567 14.1488 1.97425 9.93923e-017 7.95139e-016 -7.95139e-016 -3.22284 -9.04928 -5.17967 -2.22536 72.1476 3.51378 0.435523 14.1462 -1.97747 -1.98785e-016 2.13591e-007 -0 
-0.0565608 4.2579 7.49822 179.604 -65.0297 177.468 -0.734403 7.45438 -1.06 -1.34556 14.9207 -2.04901 -1.34557 14.9208 -2.04902 1.27523 6.81994 -0.312839 -0.749887 -5.82733 -2.41126 28.3435 3.84532 -35.4788 16.6344 -20.6112 -54.107 80.3381 -22.5525 82.5999 -20.5129 -36.9348 66.5558 1.59028e-015 4.77083e-015 6.36111e-015 -1.59028e-015 1.59028e-015 9.54166e-015 -8.82781e-032 1.59028e-015 3.18055e-015 1.59028e-015 4.77083e-015 6.36111e-015 -0.0128219 0.00231818 8.65139e-005 0 0 -3.18055e-015 1.59028e-015 4.77083e-015 6.36111e-015 -0.0159833 0.00298735 0.000859165 0 0 -6.36111e-015 1.59028e-015 4.77083e-015 6.36111e-015 -0.0126443 0.00313813 0.00284323 -3.18055e-015 -3.18055e-015 -1.27222e-014 1.59028e-015 4.77083e-015 6.36111e-015 -1.59028e-015 1.59028e-015 9.54166e-015 -8.82781e-032 1.59028e-015 3.18055e-015 -29.2507 3.67895 30.0244 -15.4151 -22.4893 59.1746 -78.7565 -21.4995 -83.3583 22.7896 -36.7639 -65.6191 6.36111e-015 -6.36111e-015 9.54166e-015 6.36111e-015 -2.38542e-015 -0 -1.59028e-015 1.59028e-015 -0 6.36111e-015 -6.36111e-015 9.54166e-015 0.0129766 0.00231157 -7.71649e-005 7.95139e-016 -7.15625e-015 -6.36111e-015 6.36111e-015 -6.36111e-015 9.54166e-015 0.016342 0.003036 -0.000868781 -1.59028e-015 1.59028e-015 -3.18055e-015 6.36111e-015 -6.36111e-015 9.54166e-015 0.0145596 0.00366685 -0.00325071 -2.38542e-015 -6.36111e-015 -0 6.36111e-015 -6.36111e-015 9.54166e-015 6.36111e-015 -2.38542e-015 -0 -1.59028e-015 1.59028e-015 -0 3.85313 -12.6 7.02496 177.396 77.0597 -179.463 0.498177 21.7649 2.97214 -2.85753e-016 7.95139e-016 -0 -3.86004 -12.7002 -7.04789 -177.404 77.0301 179.458 -0.511489 21.8369 -2.97934 4.53943e-015 1.19271e-015 -2.48481e-016 
-0.00826906 8.56561 8.26492 178.523 -72.9504 176.605 -0.685782 6.94229 -0.974803 -1.26558 13.895 -1.88616 -1.26559 13.895 -1.88616 1.08686 6.38318 -0.272842 -0.682353 -5.42606 -2.24341 26.2891 3.6207 -33.888 21.3337 -17.8164 -49.1093 73.9209 -21.8694 76.2328 -18.9944 -34.252 61.8003 -5.96572e-006 -2.02311e-006 4.71842e-006 2.08724e-015 -5.66536e-015 6.36111e-015 8.44835e-015 2.98177e-016 -0 -5.96572e-006 -2.02311e-006 4.71842e-006 -0.0128141 0.00232442 8.89525e-005 1.03153e-005 -3.18232e-006 -5.61622e-006 -5.96572e-006 -2.02311e-006 4.71842e-006 -0.0160296 0.00299387 0.000852135 4.79568e-015 7.57867e-015 6.36111e-015 -5.96572e-006 -2.02311e-006 4.71842e-006 -0.0125887 0.00312058 0.00282884 -2.95692e-015 3.08116e-015 3.18055e-015 -5.96572e-006 -2.02311e-006 4.71842e-006 2.08724e-015 -5.66536e-015 6.36111e-015 8.44835e-015 2.98177e-016 -0 -27.1975 3.47703 28.4339 -20.1814 -19.8402 53.94 -72.5476 -20.9224 -76.8807 21.0811 -34.1733 -61.3919 -1.98785e-015 1.59028e-015 3.18055e-015 -3.97569e-016 3.97569e-015 -3.18055e-015 -2.38542e-015 0 -3.18055e-015 -1.98785e-015 1.59028e-015 3.18055e-015 0.0129733 0.00232573 -8.93234e-005 1.98785e-015 3.97569e-015 -0 -1.98785e-015 1.59028e-015 3.18055e-015 0.0163107 0.00303423 -0.000881068 3.97569e-016 0 -6.36111e-015 -1.98785e-015 1.59028e-015 3.18055e-015 0.0145742 0.00368067 -0.00326322 -6.69771e-006 -7.86771e-006 -2.8224e-006 -1.98785e-015 1.59028e-015 3.18055e-015 -3.97569e-016 3.97569e-015 -3.18055e-015 -2.38542e-015 0 -3.18055e-015 3.68103 -11.8545 6.675 174.079 83.8731 -175.943 0.309326 20.1078 2.75765 1.11655e-008 -5.63231e-010 2.12913e-007 -3.68644 -11.9539 -6.69402 -174.125 83.825 175.976 -0.322031 20.1598 -2.76386 -2.57804e-006 2.22612e-008 5.30243e-007 
